<svg width="16" height="17" viewBox="0 0 16 17" fill="none" xmlns="http://www.w3.org/2000/svg">
<path id="add_circle" d="M7.29167 12.2083H8.54163V8.875H11.875V7.62504H8.54163V4.29171H7.29167V7.62504H3.95833V8.875H7.29167V12.2083ZM7.91804 16.1667C6.8231 16.1667 5.7939 15.9589 4.83046 15.5433C3.867 15.1278 3.02893 14.5638 2.31625 13.8515C1.60356 13.1391 1.03934 12.3014 0.623604 11.3384C0.207868 10.3753 0 9.34636 0 8.25142C0 7.15647 0.207778 6.12728 0.623334 5.16383C1.03889 4.20037 1.60285 3.36231 2.31521 2.64963C3.02758 1.93693 3.86529 1.37272 4.82831 0.956979C5.79133 0.541243 6.82031 0.333374 7.91525 0.333374C9.0102 0.333374 10.0394 0.541153 11.0028 0.956708C11.9663 1.37226 12.8044 1.93622 13.517 2.64858C14.2297 3.36096 14.794 4.19866 15.2097 5.16169C15.6254 6.1247 15.8333 7.15368 15.8333 8.24863C15.8333 9.34357 15.6255 10.3728 15.21 11.3362C14.7944 12.2997 14.2304 13.1377 13.5181 13.8504C12.8057 14.5631 11.968 15.1273 11.005 15.5431C10.042 15.9588 9.01299 16.1667 7.91804 16.1667Z" fill="#7ED957"/>
</svg>
