<svg width="27" height="25" viewBox="0 0 27 25" fill="none" xmlns="http://www.w3.org/2000/svg">
<path d="M22.0931 16.8607C22.0931 17.723 21.3392 18.423 20.4105 18.423H5.81346C4.88476 18.423 4.13086 17.723 4.13086 16.8607C4.13086 15.9984 4.88476 15.2984 5.81346 15.2984H6.37066V10.0839C6.37066 6.63461 9.38623 3.82446 13.112 3.82446C14.9694 3.82446 16.652 4.52446 17.8757 5.66069C19.0994 6.78678 19.8533 8.3491 19.8533 10.0839V15.2984H20.4105C21.3392 15.2984 22.0931 15.9984 22.0931 16.8607Z" stroke="#DCDCDC" stroke-width="1.2" stroke-linecap="round" stroke-linejoin="round"/>
<path d="M13.1112 3.83484V2.78992" stroke="#DCDCDC" stroke-width="1.2" stroke-linecap="round" stroke-linejoin="round"/>
<path d="M16.4784 18.4331C16.4784 20.1679 14.9706 21.5577 13.1132 21.5577C11.2558 21.5577 9.74805 20.1577 9.74805 18.4331H16.4784Z" stroke="#DCDCDC" stroke-width="1.2" stroke-linecap="round" stroke-linejoin="round"/>
</svg>
