<svg width="24" height="24" viewBox="0 0 24 24" fill="none" xmlns="http://www.w3.org/2000/svg">
<g id="assignment_add">
<mask id="mask0_2030_23" style="mask-type:alpha" maskUnits="userSpaceOnUse" x="0" y="0" width="24" height="24">
<rect id="Bounding box" width="24" height="24" fill="#D9D9D9"/>
</mask>
<g mask="url(#mask0_2030_23)">
<path id="assignment_add_2" d="M12 4.34613C12.2166 4.34613 12.3958 4.27529 12.5375 4.13363C12.6791 3.99196 12.75 3.81279 12.75 3.59613C12.75 3.37946 12.6791 3.20029 12.5375 3.05863C12.3958 2.91696 12.2166 2.84613 12 2.84613C11.7833 2.84613 11.6041 2.91696 11.4625 3.05863C11.3208 3.20029 11.25 3.37946 11.25 3.59613C11.25 3.81279 11.3208 3.99196 11.4625 4.13363C11.6041 4.27529 11.7833 4.34613 12 4.34613ZM18 22.5576C16.7513 22.5576 15.6891 22.1198 14.8135 21.2442C13.9378 20.3685 13.5 19.3064 13.5 18.0577C13.5 16.809 13.9378 15.7468 14.8135 14.8712C15.6891 13.9955 16.7513 13.5577 18 13.5577C19.2487 13.5577 20.3109 13.9955 21.1865 14.8712C22.0621 15.7468 22.5 16.809 22.5 18.0577C22.5 19.3064 22.0621 20.3685 21.1865 21.2442C20.3109 22.1198 19.2487 22.5576 18 22.5576ZM17.5577 21H18.4423V18.5H20.9423V17.6154H18.4423V15.1154H17.5577V17.6154H15.0577V18.5H17.5577V21ZM7.25 8.86535H16.75V7.36538H7.25V8.86535ZM11.5981 20.5H5.3077C4.81058 20.5 4.38503 20.3229 4.03102 19.9689C3.67701 19.6149 3.5 19.1894 3.5 18.6923V5.3077C3.5 4.81058 3.67701 4.38503 4.03102 4.03103C4.38503 3.67701 4.81058 3.5 5.3077 3.5H9.7577C9.82052 2.94488 10.0628 2.47278 10.4846 2.08368C10.9064 1.69456 11.4131 1.5 12.0048 1.5C12.5964 1.5 13.1032 1.69456 13.525 2.08368C13.9468 2.47278 14.1859 2.94488 14.2423 3.5H18.6923C19.1894 3.5 19.6149 3.67701 19.9689 4.03103C20.3229 4.38503 20.5 4.81058 20.5 5.3077V11.6327C20.0935 11.4634 19.6846 11.3349 19.273 11.2471C18.8615 11.1593 18.4371 11.1154 18 11.1154C17.7397 11.1154 17.4903 11.1308 17.2519 11.1615C17.0134 11.1923 16.7756 11.2404 16.5384 11.3058V11.25H7.25V12.75H13.6058C13.2032 13.0653 12.8458 13.4234 12.5337 13.824C12.2215 14.2247 11.9577 14.6615 11.7423 15.1346H7.25V16.6346H11.2673C11.2147 16.8589 11.1763 17.0823 11.1519 17.3048C11.1276 17.5272 11.1154 17.7589 11.1154 18C11.1154 18.4282 11.1494 18.8525 11.2173 19.273C11.2852 19.6935 11.4122 20.1025 11.5981 20.5Z" fill="#77797B"/>
</g>
</g>
</svg>
