<svg width="24" height="24" viewBox="0 0 24 24" fill="none" xmlns="http://www.w3.org/2000/svg">
<g id="move_item">
<mask id="mask0_2030_28" style="mask-type:alpha" maskUnits="userSpaceOnUse" x="0" y="0" width="24" height="24">
<rect id="Bounding box" width="24" height="24" fill="#D9D9D9"/>
</mask>
<g mask="url(#mask0_2030_28)">
<path id="move_item_2" d="M20.3711 12.75H8.57695V11.25H20.3711L18.5519 9.43078L19.6057 8.34618L23.2595 12L19.6057 15.6538L18.5519 14.5692L20.3711 12.75ZM15.2019 8.86538V5.30773C15.2019 5.21798 15.1731 5.14426 15.1154 5.08656C15.0577 5.02886 14.9839 5.00001 14.8942 5.00001H5.3077C5.21795 5.00001 5.14423 5.02886 5.08652 5.08656C5.02882 5.14426 4.99997 5.21798 4.99997 5.30773V18.6923C4.99997 18.782 5.02882 18.8558 5.08652 18.9135C5.14423 18.9712 5.21795 19 5.3077 19H14.8942C14.9839 19 15.0577 18.9712 15.1154 18.9135C15.1731 18.8558 15.2019 18.782 15.2019 18.6923V15.1346H16.7019V18.6923C16.7019 19.191 16.5253 19.617 16.1721 19.9702C15.8189 20.3234 15.3929 20.5 14.8942 20.5H5.3077C4.80898 20.5 4.38302 20.3234 4.02982 19.9702C3.67661 19.617 3.5 19.191 3.5 18.6923V5.30773C3.5 4.80902 3.67661 4.38306 4.02982 4.02986C4.38302 3.67664 4.80898 3.50003 5.3077 3.50003H14.8942C15.3929 3.50003 15.8189 3.67664 16.1721 4.02986C16.5253 4.38306 16.7019 4.80902 16.7019 5.30773V8.86538H15.2019Z" fill="white"/>
</g>
</g>
</svg>
