<svg width="20" height="21" viewBox="0 0 20 21" fill="none" xmlns="http://www.w3.org/2000/svg">
<g id="stylus">
<mask id="mask0_0_144" style="mask-type:alpha" maskUnits="userSpaceOnUse" x="0" y="0" width="20" height="21">
<rect id="Bounding box" y="0.499939" width="20" height="20" fill="#D9D9D9"/>
</mask>
<g mask="url(#mask0_0_144)">
<path id="stylus_2" d="M3.84367 17.5383C3.57871 17.597 3.35062 17.5308 3.15938 17.3396C2.96815 17.1483 2.9019 16.9202 2.96065 16.6553L3.59367 13.5784L6.92055 16.9053L3.84367 17.5383ZM7.91411 16.1249L4.37409 12.5848L12.9943 3.97265C13.2817 3.68526 13.6375 3.54156 14.0616 3.54156C14.4857 3.54156 14.8415 3.68526 15.1289 3.97265L16.5263 5.37006C16.8137 5.65745 16.9574 6.01322 16.9574 6.43736C16.9574 6.8615 16.8137 7.21726 16.5263 7.50465L7.91411 16.1249Z" fill="#7ED957"/>
</g>
</g>
</svg>
